<?xml version="1.0" encoding="UTF-8"?>
<svg width="148px" height="149px" viewBox="0 0 148 149" version="1.1" xmlns="http://www.w3.org/2000/svg" xmlns:xlink="http://www.w3.org/1999/xlink">
    <!-- Generator: Sketch 42 (36781) - http://www.bohemiancoding.com/sketch -->
    <title>date</title>
    <desc>Created with Sketch.</desc>
    <defs>
        <linearGradient x1="0%" y1="0%" x2="100%" y2="86.0906863%" id="linearGradient-1">
            <stop stop-color="#0269FF" offset="0%"></stop>
            <stop stop-color="#33FFC9" offset="100%"></stop>
        </linearGradient>
        <linearGradient x1="0%" y1="0%" x2="101.999998%" y2="100.999999%" id="linearGradient-2">
            <stop stop-color="#3023AE" offset="0%"></stop>
            <stop stop-color="#C96DD8" offset="100%"></stop>
        </linearGradient>
    </defs>
    <g id="iwith" stroke="none" stroke-width="1" fill="none" fill-rule="evenodd">
        <g id="Desktop" transform="translate(-802.000000, -1905.000000)">
            <g id="date" transform="translate(801.486730, 1905.000000)">
                <g transform="translate(0.445331, 0.771386)">
                    <path d="M0.646848345,74 C0.646848345,114.446534 33.5534662,147.353152 74,147.353152 C114.446534,147.353152 147.353152,114.446534 147.353152,74 C147.353152,33.5534662 114.446534,0.646848345 74,0.646848345 C33.5534662,0.646848345 0.646848345,33.5534662 0.646848345,74 Z" id="Fill-1" stroke="url(#linearGradient-1)"></path>
                    <g id="Users" transform="translate(54.500000, 62.000000)" fill="url(#linearGradient-2)">
                        <path d="M29.9625,21.5009 L29.6835,20.1769 C29.4495,19.0629 29.0325,17.9999 28.4635,17.0269 C28.7305,17.0589 29.0025,17.0759 29.2785,17.0759 C30.7175,17.0759 32.0545,16.6289 33.1585,15.8669 C34.9185,16.9259 36.2365,18.6829 36.6805,20.7909 L36.8295,21.5009 L29.9625,21.5009 Z M10.4865,21.5009 L10.6915,20.5259 C11.0685,18.7369 11.9985,17.1029 13.3325,15.8629 C13.6385,15.6509 13.9265,15.4149 14.1945,15.1569 C14.2465,15.1199 14.2995,15.0839 14.3515,15.0479 C15.7495,16.0979 17.4845,16.7199 19.3625,16.7199 C21.2395,16.7199 22.9745,16.0979 24.3715,15.0499 C24.4285,15.0879 24.4845,15.1279 24.5405,15.1679 C24.7995,15.4169 25.0785,15.6449 25.3735,15.8499 C26.7145,17.0919 27.6495,18.7309 28.0275,20.5259 L28.2325,21.5009 L10.4865,21.5009 Z M2.0385,20.7909 C2.4825,18.6819 3.8015,16.9239 5.5635,15.8659 C6.6675,16.6279 8.0055,17.0759 9.4455,17.0759 C9.7195,17.0759 9.9895,17.0589 10.2555,17.0269 C9.6865,17.9999 9.2705,19.0629 9.0355,20.1769 L8.7565,21.5009 L1.8895,21.5009 L2.0385,20.7909 Z M9.4455,5.0589 C10.1795,5.0589 10.8775,5.2129 11.5105,5.4899 C11.1815,6.3849 11.0025,7.3519 11.0025,8.3599 C11.0025,10.4699 11.7895,12.3989 13.0845,13.8719 C12.9585,13.9639 12.8335,14.0589 12.7125,14.1579 C12.5635,14.2779 12.4195,14.4039 12.2775,14.5329 C11.4645,15.0689 10.4915,15.3829 9.4455,15.3829 C6.5995,15.3829 4.2835,13.0669 4.2835,10.2209 C4.2835,7.3739 6.5995,5.0589 9.4455,5.0589 L9.4455,5.0589 Z M19.3625,1.6929 C23.0385,1.6929 26.0305,4.6839 26.0305,8.3599 C26.0305,12.0369 23.0385,15.0279 19.3625,15.0279 C15.6865,15.0279 12.6945,12.0369 12.6945,8.3599 C12.6945,4.6839 15.6865,1.6929 19.3625,1.6929 L19.3625,1.6929 Z M29.2785,5.0589 C32.1245,5.0589 34.4405,7.3739 34.4405,10.2209 C34.4405,13.0669 32.1245,15.3829 29.2785,15.3829 C28.2245,15.3829 27.2445,15.0639 26.4265,14.5189 C26.2895,14.3959 26.1505,14.2739 26.0075,14.1579 C25.8865,14.0599 25.7635,13.9659 25.6385,13.8739 C26.9345,12.4009 27.7225,10.4719 27.7225,8.3599 C27.7225,7.3529 27.5435,6.3859 27.2155,5.4909 C27.8475,5.2139 28.5445,5.0589 29.2785,5.0589 L29.2785,5.0589 Z M38.7015,22.1729 L38.3365,20.4419 C37.9005,18.3699 36.7545,16.4939 35.1105,15.1589 C34.9035,14.9919 34.6915,14.8349 34.4725,14.6869 C35.5065,13.4859 36.1335,11.9259 36.1335,10.2209 C36.1335,6.4409 33.0585,3.3659 29.2785,3.3659 C28.2785,3.3659 27.3295,3.5819 26.4725,3.9689 C24.9975,1.5889 22.3625,-9.99999998e-05 19.3625,-9.99999998e-05 C16.3625,-9.99999998e-05 13.7275,1.5889 12.2525,3.9689 C11.3955,3.5819 10.4455,3.3659 9.4455,3.3659 C5.6665,3.3659 2.5915,6.4409 2.5915,10.2209 C2.5915,11.9249 3.2175,13.4849 4.2515,14.6859 C4.0315,14.8339 3.8165,14.9909 3.6095,15.1589 C1.9645,16.4939 0.8185,18.3699 0.3825,20.4419 L0.0185,22.1729 C-0.0345,22.4229 0.0285,22.6819 0.1895,22.8809 C0.3495,23.0789 0.5915,23.1939 0.8465,23.1939 L9.4435,23.1939 L10.5685,23.1939 L29.0785,23.1939 L29.2755,23.1939 L37.8725,23.1939 C38.1285,23.1939 38.3695,23.0789 38.5305,22.8809 C38.6905,22.6819 38.7535,22.4229 38.7015,22.1729 L38.7015,22.1729 Z" id="Fill-1"></path>
                    </g>
                </g>
            </g>
        </g>
    </g>
</svg>