<?xml version="1.0" encoding="UTF-8" standalone="no"?>
<!DOCTYPE svg PUBLIC "-//W3C//DTD SVG 1.1//EN" "http://www.w3.org/Graphics/SVG/1.1/DTD/svg11.dtd">
<svg width="100%" height="100%" viewBox="0 0 66 71" version="1.1" xmlns="http://www.w3.org/2000/svg" xmlns:xlink="http://www.w3.org/1999/xlink" xml:space="preserve" style="fill-rule:evenodd;clip-rule:evenodd;stroke-linejoin:round;stroke-miterlimit:1.41421;">
    <g id="iwith-logo" transform="matrix(1,0,0,1,0.323591,-0.5)">
        <path id="i" d="M12.355,6.718C12.355,7.55 12.187,8.327 11.85,9.047C11.514,9.767 11.066,10.408 10.506,10.968C9.946,11.528 9.297,11.968 8.561,12.289C7.825,12.609 7.04,12.769 6.208,12.769C5.376,12.769 4.599,12.609 3.879,12.289C3.159,11.968 2.518,11.528 1.958,10.968C1.398,10.408 0.958,9.767 0.637,9.047C0.317,8.327 0.157,7.55 0.157,6.718C0.157,5.886 0.317,5.093 0.637,4.341C0.958,3.589 1.398,2.932 1.958,2.372C2.518,1.812 3.159,1.372 3.879,1.052C4.599,0.731 5.376,0.571 6.208,0.571C7.04,0.571 7.825,0.731 8.561,1.052C9.297,1.372 9.946,1.812 10.506,2.372C11.066,2.932 11.514,3.589 11.85,4.341C12.187,5.093 12.355,5.886 12.355,6.718Z" style="fill:white;"/>
        <path id="i-copy" d="M29.857,6.718C29.857,7.55 29.689,8.327 29.353,9.047C29.017,9.767 28.569,10.408 28.008,10.968C27.448,11.528 26.8,11.968 26.064,12.289C25.327,12.609 24.543,12.769 23.71,12.769C22.878,12.769 22.102,12.609 21.381,12.289C20.661,11.968 20.021,11.528 19.461,10.968C18.9,10.408 18.46,9.767 18.14,9.047C17.82,8.327 17.66,7.55 17.66,6.718C17.66,5.886 17.82,5.093 18.14,4.341C18.46,3.589 18.9,2.932 19.461,2.372C20.021,1.812 20.661,1.372 21.381,1.052C22.102,0.731 22.878,0.571 23.71,0.571C24.543,0.571 25.327,0.731 26.064,1.052C26.8,1.372 27.448,1.812 28.008,2.372C28.569,2.932 29.017,3.589 29.353,4.341C29.689,5.093 29.857,5.886 29.857,6.718Z" style="fill:white;"/>
        <path id="i-copy-3" d="M47.36,6.718C47.36,7.55 47.192,8.327 46.856,9.047C46.519,9.767 46.071,10.408 45.511,10.968C44.951,11.528 44.302,11.968 43.566,12.289C42.83,12.609 42.045,12.769 41.213,12.769C40.381,12.769 39.604,12.609 38.884,12.289C38.164,11.968 37.523,11.528 36.963,10.968C36.403,10.408 35.963,9.767 35.643,9.047C35.322,8.327 35.162,7.55 35.162,6.718C35.162,5.886 35.322,5.093 35.643,4.341C35.963,3.589 36.403,2.932 36.963,2.372C37.523,1.812 38.164,1.372 38.884,1.052C39.604,0.731 40.381,0.571 41.213,0.571C42.045,0.571 42.83,0.731 43.566,1.052C44.302,1.372 44.951,1.812 45.511,2.372C46.071,2.932 46.519,3.589 46.856,4.341C47.192,5.093 47.36,5.886 47.36,6.718Z" style="fill:white;"/>
        <path id="Mask" d="M64.862,6.718C64.862,7.55 64.694,8.327 64.358,9.047C64.022,9.767 63.574,10.408 63.014,10.968C62.453,11.528 61.805,11.968 61.069,12.289C60.332,12.609 59.548,12.769 58.716,12.769C57.883,12.769 57.107,12.609 56.387,12.289C55.666,11.968 55.026,11.528 54.466,10.968C53.906,10.408 53.465,9.767 53.145,9.047C52.825,8.327 52.665,7.55 52.665,6.718C52.665,5.886 52.825,5.093 53.145,4.341C53.465,3.589 53.906,2.932 54.466,2.372C55.026,1.812 55.666,1.372 56.387,1.052C57.107,0.731 57.883,0.571 58.716,0.571C59.548,0.571 60.332,0.731 61.069,1.052C61.805,1.372 62.453,1.812 63.014,2.372C63.574,2.932 64.022,3.589 64.358,4.341C64.694,5.093 64.862,5.886 64.862,6.718Z" style="fill:white;"/>
        <g transform="matrix(1,0,0,1,-0.323591,0.5)">
            <path d="M28.26,28.758L28.26,70.135L19.712,70.135L19.712,60.413C21.553,53.665 25.816,38.007 28.26,28.758ZM37.215,28.881C39.745,38.324 44.1,54.117 45.763,60.376L45.763,70.135L37.215,70.135L37.215,28.881ZM10.757,21.69L10.757,50.792C6.851,37.17 2.324,21.5 2.324,21.5L10.757,21.69ZM63.361,21.499C63.353,21.534 63.34,21.57 63.324,21.607C62.83,22.7 58.514,37.208 54.717,50.142L54.717,21.489L63.361,21.499Z" style="fill:white;"/>
        </g>
    </g>
</svg>
