<?xml version="1.0" encoding="UTF-8"?>
<svg width="76px" height="66px" viewBox="0 0 76 66" version="1.1" xmlns="http://www.w3.org/2000/svg" xmlns:xlink="http://www.w3.org/1999/xlink">
    <!-- Generator: Sketch 42 (36781) - http://www.bohemiancoding.com/sketch -->
    <title>logo</title>
    <desc>Created with Sketch.</desc>
    <defs></defs>
    <g id="iwith" stroke="none" stroke-width="1" fill="none" fill-rule="evenodd">
        <g id="Desktop" transform="translate(-91.000000, -17.000000)" fill="#FFFFFF">
            <g id="header">
                <path d="M103.831549,23.5316708 C103.831549,24.4052354 103.655159,25.2199901 103.302373,25.9759595 C102.949588,26.7319289 102.479214,27.4038916 101.891238,27.9918677 C101.303261,28.5798439 100.622899,29.0418183 99.8501305,29.3778047 C99.0773618,29.713791 98.2542075,29.8817817 97.3806429,29.8817817 C96.5070783,29.8817817 95.6923235,29.713791 94.9363541,29.3778047 C94.1803848,29.0418183 93.5084221,28.5798439 92.9204459,27.9918677 C92.3324697,27.4038916 91.8704954,26.7319289 91.534509,25.9759595 C91.1985226,25.2199901 91.0305319,24.4052354 91.0305319,23.5316708 C91.0305319,22.6581062 91.1985226,21.8265523 91.534509,21.0369843 C91.8704954,20.2474163 92.3324697,19.5586545 92.9204459,18.9706784 C93.5084221,18.3827022 94.1803848,17.9207278 94.9363541,17.5847415 C95.6923235,17.2487551 96.5070783,17.0807644 97.3806429,17.0807644 C98.2542075,17.0807644 99.0773618,17.2487551 99.8501305,17.5847415 C100.622899,17.9207278 101.303261,18.3827022 101.891238,18.9706784 C102.479214,19.5586545 102.949588,20.2474163 103.302373,21.0369843 C103.655159,21.8265523 103.831549,22.6581062 103.831549,23.5316708 Z M109.003199,41.0583132 L116.805639,67.7970124 L123.906736,42.9431723 C124.666528,40.3423459 125.229058,38.5670894 125.594343,37.6173494 C125.959627,36.6676095 126.646352,35.7617172 127.654537,34.8996456 C128.662723,34.0375739 130.043478,33.6065446 131.796844,33.6065446 C133.579433,33.6065446 134.974799,34.0375739 135.982985,34.8996456 C136.99117,35.7617172 137.699812,36.6968318 138.108931,37.7050173 C138.518049,38.7132028 139.087885,40.459237 139.818454,42.9431723 L146.919551,67.7970124 L154.809659,41.0583132 C155.335669,39.1296105 155.759393,37.7342442 156.080843,36.8721726 C156.402294,36.0101009 156.942907,35.2503203 157.702699,34.592808 C158.462491,33.9352958 159.558328,33.6065446 160.990244,33.6065446 C162.422159,33.6065446 163.664108,34.1033242 164.716128,35.0968983 C165.768148,36.0904724 166.29415,37.2593656 166.29415,38.6036129 C166.29415,39.8309692 165.841203,41.6865871 164.935298,44.1705224 L155.16033,72.8379147 C154.31287,75.2634045 153.655368,77.0167442 153.187804,78.0979867 C152.720239,79.1792291 151.982375,80.143566 150.97419,80.9910263 C149.966004,81.8384865 148.585249,82.2622103 146.831883,82.2622103 C145.020072,82.2622103 143.595483,81.8092642 142.558075,80.9033584 C141.520666,79.9974526 140.75358,78.887004 140.256793,77.5719795 C139.760006,76.2569549 139.219393,74.5474486 138.634938,72.4434093 L131.796844,49.1237569 L125.17792,72.4434093 C124.301237,75.6871366 123.351511,78.1345067 122.328715,79.7855931 C121.305918,81.4366795 119.508744,82.2622103 116.937141,82.2622103 C115.622116,82.2622103 114.504362,82.0065149 113.583845,81.4951165 C112.663328,80.983718 111.896242,80.2531598 111.282563,79.3034198 C110.668885,78.3536799 110.128272,77.2286202 109.660708,75.928207 C109.193144,74.6277938 108.827865,73.5977067 108.56486,72.8379147 L98.8775604,44.1705224 C97.913209,41.4820278 97.4310406,39.6264098 97.4310406,38.6036129 C97.4310406,37.3178111 97.9424314,36.1635291 98.9652282,35.1407322 C99.9880251,34.1179353 101.244585,33.6065446 102.734946,33.6065446 C104.722095,33.6065446 106.066322,34.1690744 106.767668,35.294151 C107.469015,36.4192276 108.214184,38.3405957 109.003199,41.0583132 Z" id="logo"></path>
            </g>
        </g>
    </g>
</svg>