<?xml version="1.0" encoding="UTF-8"?>
<svg width="572px" height="661px" viewBox="0 0 572 661" version="1.1" xmlns="http://www.w3.org/2000/svg" xmlns:xlink="http://www.w3.org/1999/xlink">
    <!-- Generator: Sketch 42 (36781) - http://www.bohemiancoding.com/sketch -->
    <title>logo</title>
    <desc>Created with Sketch.</desc>
    <defs></defs>
    <g id="iwith" stroke="none" stroke-width="1" fill="none" fill-rule="evenodd" opacity="0.35">
        <g id="Desktop" transform="translate(-376.000000, -369.000000)" fill="#DCDCDC">
            <path d="M444.168657,470.451127 C444.168657,478.116011 442.620963,485.264882 439.52553,491.897954 C436.430096,498.531027 432.302913,504.427003 427.143856,509.586059 C421.9848,514.745115 416.015124,518.798599 409.23465,521.746631 C402.454176,524.694663 395.231606,526.168657 387.566722,526.168657 C379.901839,526.168657 372.752968,524.694663 366.119895,521.746631 C359.486823,518.798599 353.590847,514.745115 348.431791,509.586059 C343.272734,504.427003 339.219251,498.531027 336.271219,491.897954 C333.323187,485.264882 331.849193,478.116011 331.849193,470.451127 C331.849193,462.786244 333.323187,455.489974 336.271219,448.562098 C339.219251,441.634222 343.272734,435.590847 348.431791,430.431791 C353.590847,425.272734 359.486823,421.219251 366.119895,418.271219 C372.752968,415.323187 379.901839,413.849193 387.566722,413.849193 C395.231606,413.849193 402.454176,415.323187 409.23465,418.271219 C416.015124,421.219251 421.9848,425.272734 427.143856,430.431791 C432.302913,435.590847 436.430096,441.634222 439.52553,448.562098 C442.620963,455.489974 444.168657,462.786244 444.168657,470.451127 Z M489.54606,624.234459 L558.006704,858.846779 L620.313583,640.772704 C626.980196,617.952376 631.915979,602.375812 635.121082,594.042546 C638.326184,585.709279 644.351686,577.760745 653.197769,570.196703 C662.043851,562.632662 674.158956,558.850698 689.543448,558.850698 C705.184347,558.850698 717.427655,562.632662 726.273737,570.196703 C735.11982,577.760745 741.337625,585.965684 744.92734,594.811766 C748.517054,603.657849 753.516939,618.978008 759.927144,640.772704 L822.234022,858.846779 L891.463887,624.234459 C896.079235,607.311518 899.797098,595.068211 902.617588,587.50417 C905.438078,579.940128 910.181558,573.273615 916.848171,567.504431 C923.514784,561.735246 933.129947,558.850698 945.693948,558.850698 C958.257949,558.850698 969.155134,563.209571 978.385829,571.92745 C987.616524,580.645328 992.231802,590.901502 992.231802,602.696279 C992.231802,613.465423 988.257534,629.747099 980.308881,651.541795 L894.54077,903.076971 C887.104933,924.35885 881.335835,939.743111 877.233304,949.230214 C873.130773,958.717317 866.656563,967.17866 857.810481,974.614498 C848.964398,982.050335 836.849293,985.768198 821.464802,985.768198 C805.567494,985.768198 793.067782,981.793931 783.965291,973.845277 C774.862801,965.896623 768.132187,956.153258 763.773247,944.61489 C759.414308,933.076521 754.670828,918.076867 749.542664,899.615477 L689.543448,695.002765 L631.467283,899.615477 C623.775038,928.076786 615.441896,949.55065 606.46761,964.037713 C597.493323,978.524776 581.724456,985.768198 559.160535,985.768198 C547.622167,985.768198 537.814701,983.52466 529.737843,979.037517 C521.660985,974.550374 514.930371,968.140265 509.545799,959.806999 C504.161227,951.473733 499.417747,941.602165 495.315216,930.192001 C491.212685,918.781837 488.00763,909.743584 485.699957,903.076971 L400.701067,651.541795 C392.239597,627.952241 388.008925,611.670565 388.008925,602.696279 C388.008925,591.414318 392.496001,581.286347 401.470287,572.31206 C410.444574,563.337774 421.469961,558.850698 434.546779,558.850698 C451.982535,558.850698 463.777135,563.786481 469.930932,573.658197 C476.084728,583.529912 482.623039,600.388497 489.54606,624.234459 Z" id="logo" transform="translate(662.040497, 699.808695) rotate(-90.000000) translate(-662.040497, -699.808695) "></path>
        </g>
    </g>
</svg>