<?xml version="1.0" encoding="UTF-8"?>
<svg width="149px" height="149px" viewBox="0 0 149 149" version="1.1" xmlns="http://www.w3.org/2000/svg" xmlns:xlink="http://www.w3.org/1999/xlink">
    <!-- Generator: Sketch 42 (36781) - http://www.bohemiancoding.com/sketch -->
    <title>Avatar</title>
    <desc>Created with Sketch.</desc>
    <defs>
        <linearGradient x1="0%" y1="0%" x2="100%" y2="86.0906863%" id="linearGradient-1">
            <stop stop-color="#0269FF" offset="0%"></stop>
            <stop stop-color="#33FFC9" offset="100%"></stop>
        </linearGradient>
        <linearGradient x1="0%" y1="0%" x2="101.999998%" y2="100.999999%" id="linearGradient-2">
            <stop stop-color="#3023AE" offset="0%"></stop>
            <stop stop-color="#C96DD8" offset="100%"></stop>
        </linearGradient>
    </defs>
    <g id="iwith" stroke="none" stroke-width="1" fill="none" fill-rule="evenodd">
        <g id="Desktop" transform="translate(-1112.000000, -1905.000000)">
            <g id="payment" transform="translate(1112.811217, 1906.000000)">
                <g id="Avatar" transform="translate(0.042771, 0.271386)">
                    <path d="M0.146848345,73.5 C0.146848345,113.946534 33.0534662,146.853152 73.5,146.853152 C113.946534,146.853152 146.853152,113.946534 146.853152,73.5 C146.853152,33.0534662 113.946534,0.146848345 73.5,0.146848345 C33.0534662,0.146848345 0.146848345,33.0534662 0.146848345,73.5 Z" id="Fill-1" stroke="url(#linearGradient-1)"></path>
                    <path d="M73.3596,55.6927 C63.6176,55.6927 55.6926,63.6177 55.6926,73.3597 C55.6926,83.1017 63.6176,91.0267 73.3596,91.0267 C83.1016,91.0267 91.0266,83.1017 91.0266,73.3597 C91.0266,63.6177 83.1016,55.6927 73.3596,55.6927 M73.3596,92.7197 C62.6846,92.7197 53.9996,84.0347 53.9996,73.3597 C53.9996,62.6847 62.6846,53.9997 73.3596,53.9997 C84.0346,53.9997 92.7196,62.6847 92.7196,73.3597 C92.7196,84.0347 84.0346,92.7197 73.3596,92.7197" id="Fill-1" fill="url(#linearGradient-2)"></path>
                    <path d="M81.1024,71.6485 C81.1024,70.9875 81.6384,70.4515 82.2994,70.4515 C82.9604,70.4515 83.4964,70.9875 83.4964,71.6485 C83.4964,72.3095 82.9604,72.8455 82.2994,72.8455 C81.6384,72.8455 81.1024,72.3095 81.1024,71.6485" id="Fill-4" fill="url(#linearGradient-2)"></path>
                    <path d="M63.2227,71.6485 C63.2227,70.9875 63.7587,70.4515 64.4197,70.4515 C65.0807,70.4515 65.6167,70.9875 65.6167,71.6485 C65.6167,72.3095 65.0807,72.8455 64.4197,72.8455 C63.7587,72.8455 63.2227,72.3095 63.2227,71.6485" id="Fill-6" fill="url(#linearGradient-2)"></path>
                    <path d="M73.3596,81.1879 C69.3256,81.1879 65.8216,79.5879 64.8386,77.2959 C64.6546,76.8659 64.8536,76.3689 65.2826,76.1849 C65.7116,76.0009 66.2096,76.1989 66.3946,76.6289 C67.1926,78.4909 70.5786,79.4949 73.3596,79.4949 C76.1396,79.4949 79.5256,78.4909 80.3246,76.6299 C80.5096,76.1999 81.0066,76.0009 81.4366,76.1859 C81.8656,76.3699 82.0646,76.8679 81.8796,77.2979 C80.8966,79.5879 77.3926,81.1879 73.3596,81.1879" id="Fill-8" fill="url(#linearGradient-2)"></path>
                </g>
            </g>
        </g>
    </g>
</svg>