<?xml version="1.0" encoding="UTF-8"?>
<svg width="149px" height="149px" viewBox="0 0 149 149" version="1.1" xmlns="http://www.w3.org/2000/svg" xmlns:xlink="http://www.w3.org/1999/xlink">
    <!-- Generator: Sketch 42 (36781) - http://www.bohemiancoding.com/sketch -->
    <title>Group</title>
    <desc>Created with Sketch.</desc>
    <defs>
        <linearGradient x1="0%" y1="0%" x2="100%" y2="86.0906863%" id="linearGradient-1">
            <stop stop-color="#0269FF" offset="0%"></stop>
            <stop stop-color="#33FFC9" offset="100%"></stop>
        </linearGradient>
        <linearGradient x1="0%" y1="0%" x2="101.999998%" y2="100.999999%" id="linearGradient-2">
            <stop stop-color="#3023AE" offset="0%"></stop>
            <stop stop-color="#C96DD8" offset="100%"></stop>
        </linearGradient>
    </defs>
    <g id="iwith" stroke="none" stroke-width="1" fill="none" fill-rule="evenodd">
        <g id="Desktop" transform="translate(-182.000000, -1905.000000)">
            <g id="sign-up" transform="translate(182.837757, 1906.000000)">
                <g id="Group" transform="translate(0.000000, 0.000000)">
                    <path d="M0.160111744,73.7713856 C0.160111744,114.217919 33.0667296,147.124537 73.5132634,147.124537 C113.959797,147.124537 146.866415,114.217919 146.866415,73.7713856 C146.866415,33.3248519 113.959797,0.418233987 73.5132634,0.418233987 C33.0667296,0.418233987 0.160111744,33.3248519 0.160111744,73.7713856 Z" id="Fill-1-Copy" stroke="url(#linearGradient-1)"></path>
                    <g id="Account" transform="translate(54.013263, 59.271386)" fill="url(#linearGradient-2)">
                        <path d="M37.0266,26.0323 C37.0266,26.6223 36.5466,27.1023 35.9566,27.1023 L2.7626,27.1023 C2.1726,27.1023 1.6926,26.6223 1.6926,26.0323 L1.6926,2.7623 C1.6926,2.1723 2.1726,1.6923 2.7626,1.6923 L35.9566,1.6923 C36.5466,1.6923 37.0266,2.1723 37.0266,2.7623 L37.0266,26.0323 Z M35.9566,0.0003 L2.7626,0.0003 C1.2396,0.0003 -0.0004,1.2393 -0.0004,2.7623 L-0.0004,26.0323 C-0.0004,27.5563 1.2396,28.7953 2.7626,28.7953 L35.9566,28.7953 C37.4796,28.7953 38.7196,27.5563 38.7196,26.0323 L38.7196,2.7623 C38.7196,1.2393 37.4796,0.0003 35.9566,0.0003 L35.9566,0.0003 Z" id="Fill-1"></path>
                        <path d="M33.1678,11.5514 L25.6548,11.5514 C25.1868,11.5514 24.8078,11.9304 24.8078,12.3974 C24.8078,12.8654 25.1868,13.2444 25.6548,13.2444 L33.1678,13.2444 C33.6348,13.2444 34.0138,12.8654 34.0138,12.3974 C34.0138,11.9304 33.6348,11.5514 33.1678,11.5514" id="Fill-4"></path>
                        <path d="M33.1678,15.5511 L25.6548,15.5511 C25.1868,15.5511 24.8078,15.9301 24.8078,16.3971 C24.8078,16.8651 25.1868,17.2441 25.6548,17.2441 L33.1678,17.2441 C33.6348,17.2441 34.0138,16.8651 34.0138,16.3971 C34.0138,15.9301 33.6348,15.5511 33.1678,15.5511" id="Fill-6"></path>
                        <path d="M21.3985,21.4922 L20.5955,21.4922 L20.4885,20.9862 C20.1345,19.3042 19.1395,17.8812 17.7955,16.9472 C18.3545,16.1822 18.6865,15.2392 18.6865,14.2212 C18.6865,11.6692 16.6095,9.5922 14.0575,9.5922 C11.5055,9.5922 9.4295,11.6692 9.4295,14.2212 C9.4295,15.2382 9.7595,16.1792 10.3185,16.9442 C8.9735,17.8782 7.9775,19.3032 7.6235,20.9862 L7.5165,21.4922 L6.7135,21.4922 L6.7135,6.8072 L21.3985,6.8072 L21.3985,21.4922 Z M14.0575,17.1572 C12.4385,17.1572 11.1215,15.8402 11.1215,14.2212 C11.1215,12.6022 12.4385,11.2852 14.0575,11.2852 C15.6765,11.2852 16.9935,12.6022 16.9935,14.2212 C16.9935,15.8402 15.6765,17.1572 14.0575,17.1572 L14.0575,17.1572 Z M9.2465,21.4922 L9.2795,21.3342 C9.5695,19.9592 10.4355,18.8142 11.5905,18.1342 C12.3055,18.5862 13.1515,18.8492 14.0575,18.8492 C14.9635,18.8492 15.8085,18.5872 16.5225,18.1362 C17.6775,18.8162 18.5435,19.9592 18.8325,21.3342 L18.8655,21.4922 L9.2465,21.4922 Z M22.2445,5.1142 L5.8675,5.1142 C5.3995,5.1142 5.0205,5.4932 5.0205,5.9612 L5.0205,22.3382 C5.0205,22.8062 5.3995,23.1852 5.8675,23.1852 L8.2035,23.1852 L19.9085,23.1852 L22.2445,23.1852 C22.7125,23.1852 23.0915,22.8062 23.0915,22.3382 L23.0915,5.9612 C23.0915,5.4932 22.7125,5.1142 22.2445,5.1142 L22.2445,5.1142 Z" id="Fill-8"></path>
                    </g>
                </g>
            </g>
        </g>
    </g>
</svg>